<?xml version="1.0" encoding="UTF-8"?>
<!DOCTYPE svg PUBLIC "-//W3C//DTD SVG 1.1//EN" "http://www.w3.org/Graphics/SVG/1.1/DTD/svg11.dtd">
<!-- Creator: CorelDRAW -->
<svg xmlns="http://www.w3.org/2000/svg" xml:space="preserve" width="33.761mm" height="33.761mm" version="1.1" style="shape-rendering:geometricPrecision; text-rendering:geometricPrecision; image-rendering:optimizeQuality; fill-rule:evenodd; clip-rule:evenodd"
viewBox="0 0 223.9 223.9"
 xmlns:xlink="http://www.w3.org/1999/xlink"
 xmlns:xodm="http://www.corel.com/coreldraw/odm/2003">
 <defs>
  <style type="text/css">
   <![CDATA[
    .str0 {stroke:#FEFEFE;stroke-width:1.33;stroke-miterlimit:22.9256}
    .fil0 {fill:#FEFEFE}
    .fil1 {fill:#1D63AD;fill-rule:nonzero}
    .fil2 {fill:#EF8023;fill-rule:nonzero}
    .fil3 {fill:#EF8121;fill-rule:nonzero}
   ]]>
  </style>
 </defs>
 <g id="Capa_x0020_1">
  <metadata id="CorelCorpID_0Corel-Layer"/>
  <circle class="fil0 str0" cx="111.95" cy="111.95" r="111.29"/>
  <g id="_2878386609600">
   <path class="fil1" d="M21.22 131.9l2.79 0 0 1.04 -2.79 0 0 -1.04zm0.1 2.38l3.15 0 0 1.08 -4.49 0 0 -5.79 4.38 0 0 1.08 -3.05 0 0 3.64z"/>
   <polygon class="fil1" points="29.06,135.36 29.06,129.56 30.17,129.56 33.59,133.74 33.05,133.74 33.05,129.56 34.37,129.56 34.37,135.36 33.27,135.36 29.85,131.19 30.38,131.19 30.38,135.36 "/>
   <path class="fil1" d="M40.5 131.9l2.79 0 0 1.04 -2.79 0 0 -1.04zm0.1 2.38l3.15 0 0 1.08 -4.49 0 0 -5.79 4.38 0 0 1.08 -3.05 0 0 3.64z"/>
   <path class="fil1" d="M52.02 135.36l-1.45 -2.1 1.43 0 1.47 2.1 -1.45 0zm-2.34 -2.05l-0.6 -0.63 1.69 0c0.41,0 0.72,-0.09 0.93,-0.27 0.2,-0.18 0.31,-0.43 0.31,-0.74 0,-0.32 -0.1,-0.57 -0.31,-0.74 -0.2,-0.18 -0.51,-0.27 -0.93,-0.27l-1.69 0 0.6 -0.64 0 3.29zm-1.34 2.05l0 -5.79 2.51 0c0.52,0 0.97,0.08 1.34,0.25 0.38,0.17 0.67,0.41 0.87,0.72 0.2,0.32 0.31,0.69 0.31,1.13 0,0.43 -0.1,0.8 -0.31,1.11 -0.2,0.31 -0.49,0.55 -0.87,0.72 -0.37,0.17 -0.82,0.25 -1.34,0.25l-1.76 0 0.6 -0.59 0 2.2 -1.34 0z"/>
   <path class="fil1" d="M61.86 134.55l0 -2.18 1.23 0 0 2.35 -1.23 -0.17zm-1.12 0.91c-0.46,0 -0.88,-0.07 -1.26,-0.22 -0.38,-0.15 -0.72,-0.35 -1,-0.63 -0.28,-0.27 -0.5,-0.59 -0.66,-0.95 -0.16,-0.36 -0.24,-0.76 -0.24,-1.2 0,-0.44 0.08,-0.84 0.24,-1.2 0.16,-0.36 0.38,-0.68 0.67,-0.95 0.29,-0.27 0.62,-0.48 1.01,-0.62 0.39,-0.15 0.81,-0.22 1.27,-0.22 0.51,0 0.97,0.09 1.39,0.26 0.41,0.17 0.76,0.42 1.04,0.74l-0.86 0.79c-0.21,-0.22 -0.44,-0.38 -0.69,-0.49 -0.25,-0.11 -0.52,-0.16 -0.81,-0.16 -0.28,0 -0.54,0.04 -0.77,0.13 -0.23,0.09 -0.43,0.22 -0.6,0.38 -0.17,0.17 -0.3,0.36 -0.39,0.59 -0.09,0.23 -0.14,0.48 -0.14,0.75 0,0.27 0.05,0.52 0.14,0.75 0.09,0.23 0.22,0.42 0.39,0.59 0.17,0.17 0.37,0.3 0.6,0.38 0.23,0.09 0.48,0.13 0.76,0.13 0.26,0 0.52,-0.04 0.77,-0.13 0.25,-0.09 0.5,-0.23 0.73,-0.44l0.76 0.97c-0.32,0.24 -0.68,0.42 -1.1,0.55 -0.42,0.13 -0.83,0.19 -1.25,0.19z"/>
   <path class="fil1" d="M67.84 129.56l1.34 0 0 5.79 -1.34 0 0 -5.79zm-0.08 -0.47l1.12 -1.19 1.39 0 -1.5 1.19 -1.01 0z"/>
   <path class="fil1" d="M74.6 134.12l0.36 -1.02 2.98 0 0.36 1.02 -3.7 0zm-1.29 1.24l2.58 -5.79 1.32 0 2.59 5.79 -1.41 0 -2.12 -5.12 0.53 0 -2.13 5.12 -1.37 0z"/>
   <path class="fil1" d="M91.03 131.9l2.79 0 0 1.04 -2.79 0 0 -1.04zm0.1 2.38l3.15 0 0 1.08 -4.49 0 0 -5.79 4.38 0 0 1.08 -3.05 0 0 3.64z"/>
   <polygon class="fil1" points="98.87,135.36 98.87,129.56 99.98,129.56 103.39,133.74 102.86,133.74 102.86,129.56 104.18,129.56 104.18,135.36 103.08,135.36 99.65,131.19 100.19,131.19 100.19,135.36 "/>
   <polygon class="fil1" points="114.93,135.36 114.93,129.56 116.04,129.56 118.51,133.65 117.92,133.65 120.35,129.56 121.45,129.56 121.47,135.36 120.21,135.36 120.2,131.49 120.43,131.49 118.49,134.75 117.89,134.75 115.91,131.49 116.19,131.49 116.19,135.36 "/>
   <path class="fil1" d="M129.16 134.32c0.26,0 0.5,-0.04 0.72,-0.13 0.22,-0.09 0.41,-0.21 0.58,-0.38 0.17,-0.17 0.29,-0.36 0.38,-0.59 0.09,-0.23 0.14,-0.48 0.14,-0.75 0,-0.28 -0.05,-0.53 -0.14,-0.75 -0.09,-0.23 -0.22,-0.42 -0.38,-0.59 -0.16,-0.17 -0.35,-0.29 -0.57,-0.38 -0.22,-0.09 -0.46,-0.13 -0.72,-0.13 -0.26,0 -0.5,0.04 -0.72,0.13 -0.22,0.09 -0.41,0.22 -0.57,0.38 -0.17,0.17 -0.29,0.36 -0.39,0.59 -0.09,0.23 -0.14,0.48 -0.14,0.75 0,0.27 0.05,0.52 0.14,0.75 0.09,0.23 0.22,0.43 0.38,0.59 0.16,0.17 0.35,0.29 0.58,0.38 0.22,0.09 0.46,0.13 0.72,0.13zm0.01 1.14c-0.46,0 -0.88,-0.07 -1.27,-0.22 -0.39,-0.15 -0.73,-0.36 -1.01,-0.63 -0.28,-0.27 -0.51,-0.59 -0.66,-0.95 -0.16,-0.36 -0.24,-0.76 -0.24,-1.19 0,-0.43 0.08,-0.83 0.24,-1.19 0.16,-0.36 0.38,-0.68 0.67,-0.95 0.29,-0.27 0.62,-0.48 1.01,-0.63 0.39,-0.15 0.81,-0.22 1.26,-0.22 0.46,0 0.88,0.07 1.26,0.22 0.38,0.15 0.72,0.36 1,0.63 0.28,0.27 0.51,0.59 0.67,0.95 0.16,0.36 0.24,0.76 0.24,1.2 0,0.43 -0.08,0.83 -0.24,1.2 -0.16,0.37 -0.38,0.68 -0.67,0.95 -0.28,0.27 -0.62,0.48 -1,0.62 -0.38,0.15 -0.8,0.22 -1.25,0.22z"/>
   <polygon class="fil1" points="138.41,135.36 135.91,129.56 137.36,129.56 139.54,134.7 138.69,134.7 140.91,129.56 142.24,129.56 139.73,135.36 "/>
   <polygon class="fil1" points="146.24,129.56 147.58,129.56 147.58,135.36 146.24,135.36 "/>
   <polygon class="fil1" points="152.47,135.36 152.47,129.56 153.58,129.56 156.05,133.65 155.46,133.65 157.89,129.56 158.99,129.56 159.01,135.36 157.75,135.36 157.74,131.49 157.97,131.49 156.03,134.75 155.43,134.75 153.45,131.49 153.73,131.49 153.73,135.36 "/>
   <polygon class="fil1" points="163.9,129.56 165.24,129.56 165.24,135.36 163.9,135.36 "/>
   <path class="fil1" d="M171.36 131.9l2.79 0 0 1.04 -2.79 0 0 -1.04zm0.1 2.38l3.15 0 0 1.08 -4.49 0 0 -5.79 4.38 0 0 1.08 -3.05 0 0 3.64z"/>
   <polygon class="fil1" points="179.2,135.36 179.2,129.56 180.31,129.56 183.73,133.74 183.19,133.74 183.19,129.56 184.52,129.56 184.52,135.36 183.42,135.36 179.99,131.19 180.53,131.19 180.53,135.36 "/>
   <polygon class="fil1" points="190.61,135.36 190.61,130.66 188.76,130.66 188.76,129.56 193.81,129.56 193.81,130.66 191.95,130.66 191.95,135.36 "/>
   <path class="fil1" d="M200.77 134.32c0.26,0 0.5,-0.04 0.72,-0.13 0.22,-0.09 0.41,-0.21 0.57,-0.38 0.17,-0.17 0.29,-0.36 0.39,-0.59 0.09,-0.23 0.14,-0.48 0.14,-0.75 0,-0.28 -0.05,-0.53 -0.14,-0.75 -0.09,-0.23 -0.22,-0.42 -0.38,-0.59 -0.16,-0.17 -0.35,-0.29 -0.57,-0.38 -0.22,-0.09 -0.46,-0.13 -0.72,-0.13 -0.26,0 -0.5,0.04 -0.72,0.13 -0.22,0.09 -0.41,0.22 -0.58,0.38 -0.17,0.17 -0.29,0.36 -0.38,0.59 -0.09,0.23 -0.14,0.48 -0.14,0.75 0,0.27 0.05,0.52 0.14,0.75 0.09,0.23 0.22,0.43 0.38,0.59 0.16,0.17 0.35,0.29 0.58,0.38 0.22,0.09 0.46,0.13 0.72,0.13zm0.01 1.14c-0.46,0 -0.88,-0.07 -1.27,-0.22 -0.39,-0.15 -0.73,-0.36 -1.01,-0.63 -0.28,-0.27 -0.5,-0.59 -0.66,-0.95 -0.16,-0.36 -0.24,-0.76 -0.24,-1.19 0,-0.43 0.08,-0.83 0.24,-1.19 0.16,-0.36 0.38,-0.68 0.67,-0.95 0.29,-0.27 0.62,-0.48 1.01,-0.63 0.39,-0.15 0.81,-0.22 1.26,-0.22 0.46,0 0.88,0.07 1.26,0.22 0.38,0.15 0.72,0.36 1,0.63 0.28,0.27 0.51,0.59 0.67,0.95 0.16,0.36 0.24,0.76 0.24,1.2 0,0.43 -0.08,0.83 -0.24,1.2 -0.16,0.37 -0.38,0.68 -0.67,0.95 -0.28,0.27 -0.62,0.48 -1,0.62 -0.38,0.15 -0.8,0.22 -1.25,0.22z"/>
   <path class="fil2" d="M203.75 109.53c-0.05,-0.35 -0.11,-0.7 -0.19,-1.05 -0.2,-0.9 -0.51,-1.79 -0.87,-2.65 0.01,0.03 0.01,0.05 0.02,0.08 0.07,0.32 0.13,0.64 0.17,0.96 0.75,5.8 -3.43,11.74 -9.52,11.8 -5.36,0.05 -9.8,-4.46 -9.86,-10.03 -0.01,-0.8 0.07,-1.58 0.23,-2.33 -0.15,0.38 -0.3,0.77 -0.44,1.16 -0.44,1.24 -0.68,2.58 -0.67,3.98 0.06,6.07 4.9,10.98 10.74,10.93 6.64,-0.07 11.19,-6.54 10.38,-12.86z"/>
   <path class="fil2" d="M201.49 107.03c-0.04,-0.28 -0.08,-0.55 -0.15,-0.82 -0.43,-1.9 -1.43,-3.68 -2.28,-5.39 -1.08,-2.17 -2.35,-4.26 -3.28,-6.49 -0.77,-1.85 -1.53,-3.71 -2.21,-5.59 -0.01,-0.04 -0.03,-0.07 -0.05,-0.1 -0.01,-0.01 -0.02,-0.02 -0.03,-0.02 -0.02,-0.02 -0.03,-0.03 -0.05,-0.05 -0.01,-0.01 -0.02,-0.01 -0.03,-0.01 -0.02,-0.01 -0.04,-0.02 -0.06,-0.03 -0.01,-0 -0.02,-0 -0.03,-0 -0.02,-0 -0.04,-0.01 -0.07,-0.01 -0,0 -0,0 -0,0 0,0 0,0 0,0 -0.01,0 -0.03,0 -0.04,0.01 0.01,-0 0.01,-0 0.02,-0 -0.01,0 -0.02,0 -0.03,0.01 -0.02,0 -0.04,0.01 -0.05,0.01 -0.01,0 -0.03,0.01 -0.04,0.02 -0.02,0.01 -0.03,0.01 -0.05,0.02 -0.02,0.01 -0.03,0.03 -0.04,0.04 -0.01,0.01 -0.02,0.02 -0.03,0.03 -0.02,0.03 -0.04,0.06 -0.05,0.09 -0.76,2.18 -1.51,4.31 -2.53,6.38 -1.69,3.45 -3.68,6.69 -4.98,10.31 -0.35,0.97 -0.53,2.02 -0.52,3.12 0.04,3.77 2.42,6.96 5.68,8.11 0.61,0.19 1.47,0.38 2.51,0.39 1.16,0.02 2.11,-0.19 2.76,-0.38 3.78,-1.35 6.14,-5.53 5.61,-9.64z"/>
   <path class="fil3" d="M80.48 110.8c0.23,-1.37 0.49,-2.73 0.69,-4.11 0.79,-5.54 1.57,-11.08 2.32,-16.62 0.14,-1.02 0.59,-1.55 1.64,-1.54 0.9,0.01 1.8,0.02 2.7,-0.02 1.26,-0.05 1.73,0.58 1.57,1.77 -0.49,3.62 -0.99,7.23 -1.5,10.84 -0.93,6.57 -1.9,13.13 -2.8,19.7 -0.15,1.12 -0.64,1.59 -1.74,1.56 -4.71,-0.14 -3.46,0.72 -5.88,-3.24 -3.7,-6.07 -7.36,-12.18 -11.04,-18.26 -0.18,-0.3 -0.44,-0.55 -0.95,-1.19 -0.34,2.35 -0.63,4.29 -0.91,6.23 -0.69,4.83 -1.41,9.66 -2.03,14.5 -0.19,1.48 -0.84,2.12 -2.32,1.95 -0.52,-0.06 -1.04,-0 -1.56,-0.01 -2.08,-0.01 -2.41,-0.43 -2.12,-2.44 1.4,-9.66 2.79,-19.32 4.17,-28.98 0.34,-2.37 0.41,-2.29 2.85,-2.49 2.26,-0.19 3.48,0.68 4.59,2.62 3.64,6.33 7.49,12.54 11.27,18.79 0.21,0.34 0.47,0.65 0.7,0.98 0.12,-0.02 0.24,-0.03 0.36,-0.05z"/>
   <path class="fil3" d="M128.3 116.75c6,-0.02 11.59,-4.31 13.16,-10.09 1.58,-5.83 -1.88,-11.44 -7.57,-12.28 -6.08,-0.9 -12.22,2.55 -14.65,8.23 -3.05,7.14 1.45,14.17 9.05,14.14zm4.05 -28.3c7.84,0.01 13.73,4.38 15.23,11.5 1.12,5.33 -0.23,10.23 -3.53,14.46 -4.8,6.15 -11.19,9.1 -18.98,7.94 -9.82,-1.47 -15.1,-10.47 -12,-19.96 2.73,-8.36 10.48,-13.96 19.3,-13.94z"/>
   <path class="fil3" d="M159.59 112.44c0.26,-1.83 0.4,-3.38 0.75,-4.88 0.09,-0.39 0.81,-0.84 1.28,-0.88 1.65,-0.16 3.32,-0.05 4.97,-0.23 4.25,-0.45 6.73,-3.34 6.64,-7.6 -0.04,-1.97 -0.89,-3.24 -2.75,-3.86 -0.93,-0.31 -1.93,-0.55 -2.91,-0.59 -2.42,-0.09 -4.84,-0.02 -7.26,-0.07 -0.9,-0.02 -1.28,0.36 -1.4,1.21 -0.79,5.54 -1.6,11.07 -2.39,16.6 -0.42,2.96 -0.81,5.92 -1.2,8.87 -0.12,0.89 -0.58,1.36 -1.51,1.36 -1.04,-0.01 -2.09,0.01 -3.13,-0 -1.13,-0.01 -1.49,-0.64 -1.34,-1.68 0.88,-6.1 1.75,-12.2 2.62,-18.3 0.58,-4.04 1.19,-8.07 1.72,-12.11 0.17,-1.28 0.69,-1.8 2.01,-1.78 4.08,0.07 8.16,-0.03 12.24,0.07 1.54,0.04 3.14,0.28 4.61,0.74 5.24,1.64 7.57,6.12 6.36,11.99 -0.85,4.13 -2.96,7.37 -6.76,9.35 -0.86,0.45 -0.9,0.9 -0.47,1.68 1.41,2.52 2.8,5.06 4.15,7.62 0.97,1.82 0.61,2.45 -1.42,2.43 -4.95,-0.06 -3.6,0.77 -5.86,-3.49 -0.93,-1.76 -1.85,-3.53 -2.68,-5.34 -0.38,-0.82 -0.92,-1.12 -1.77,-1.1 -1.45,0.03 -2.9,0.01 -4.52,0.01z"/>
   <path class="fil3" d="M40.28 97.34c-0.65,1.08 -1.31,2.14 -1.95,3.23 -3.91,6.72 -7.83,13.44 -11.69,20.19 -0.66,1.16 -1.43,1.81 -2.81,1.63 -0.65,-0.08 -1.33,0.01 -1.99,-0 -1.91,-0.02 -2.34,-0.72 -1.39,-2.35 2.17,-3.73 4.37,-7.44 6.56,-11.16 3.72,-6.29 7.46,-12.55 11.13,-18.87 0.63,-1.09 1.37,-1.53 2.61,-1.5 4.22,0.07 3.47,-0.45 4.64,3.35 2.87,9.28 5.66,18.59 8.49,27.89 0.68,2.24 0.41,2.64 -1.9,2.62 -4.29,-0.04 -3.54,0.58 -4.75,-3.51 -0.31,-1.05 -0.72,-2.07 -0.95,-3.13 -0.23,-1.06 -0.84,-1.34 -1.83,-1.33 -3.04,0.03 -6.07,0.01 -9.11,0 -0.51,-0 -1.01,-0.06 -1.89,-0.11 1.16,-1.94 2.12,-3.64 3.2,-5.28 0.19,-0.28 0.86,-0.31 1.31,-0.33 1.61,-0.04 3.23,0.03 4.84,-0.07 0.37,-0.02 1.06,-0.68 1.01,-0.88 -0.96,-3.46 -2.01,-6.89 -3.05,-10.33 -0.16,-0.02 -0.32,-0.05 -0.48,-0.07z"/>
   <path class="fil3" d="M96.97 122.59c-3.68,0.03 -6.58,-1.49 -8.77,-4.43 -0.63,-0.85 -0.64,-1.63 0.03,-2.45 0.51,-0.63 0.97,-1.29 1.48,-1.92 0.97,-1.22 1.55,-1.24 2.6,-0.02 1.28,1.49 2.74,2.62 4.8,2.71 2.75,0.11 4.54,-1.11 5.12,-3.91 0.65,-3.15 1.01,-6.36 1.48,-9.55 0.22,-1.5 0.42,-3 0.62,-4.51 0.1,-0.76 0.42,-1.19 1.28,-1.16 1.14,0.05 2.28,0.06 3.41,-0.04 1.32,-0.11 1.51,0.52 1.34,1.63 -0.55,3.61 -1.04,7.22 -1.6,10.83 -0.27,1.73 -0.49,3.49 -1.03,5.14 -1.62,4.99 -5.49,7.67 -10.75,7.67z"/>
   <path class="fil3" d="M102.63 94.34c-2.32,0 -4.64,-0.03 -6.96,0.01 -1.3,0.02 -1.77,-0.54 -1.71,-1.82 0.19,-3.92 0.28,-4.02 4.15,-4.03 3.88,-0 7.77,-0.01 11.65,0.01 1.62,0.01 2,0.37 1.74,1.97 -0.72,4.48 0.33,3.75 -4.05,3.82 -1.61,0.03 -3.22,0 -4.83,0l0 0.02z"/>
  </g>
 </g>
</svg>
